# xmcd
#
# Track frame offsets: 
#        150
#        11209
#        26305
#        43309
#        54885
#        70961
#        84126
#        94914
#        108147
#        118569
#        136980
#        147388
#
# Disc length: 2393 seconds
#
# Revision: 1
# Processed by: cddbd v1.5.2PL0 Copyright (c) Steve Scherf et al.
# Submitted via: ExactAudioCopyFreeDBPlugin 1.0
#
DISCID=9a09570c
DTITLE=Cash O'Riley and The DownRight Daddies - Booze, Lust, Lies and Hear
DTITLE=tache... 
DYEAR=2002
DGENRE=Country
TTITLE0=Send Along
TTITLE1=Big City Queen
TTITLE2=Everytime You Walk
TTITLE3=The Last Time
TTITLE4=One Day A Week
TTITLE5=I'll Be Gone
TTITLE6=I May Have
TTITLE7=Ruby Fruit Blues
TTITLE8=I Love Rock 'n' Roll
TTITLE9=Make You Cry
TTITLE10=Two Six Packs
TTITLE11=Enough Beer
EXTD=
EXTT0=
EXTT1=
EXTT2=
EXTT3=
EXTT4=
EXTT5=
EXTT6=
EXTT7=
EXTT8=
EXTT9=
EXTT10=
EXTT11=
PLAYORDER=
